<svg width="150" height="50" viewBox="0 0 150 50" fill="none" xmlns="http://www.w3.org/2000/svg">
<g filter="url(#filter0_d_63326_65)">
<path d="M10.2652 18.8859L12.3995 17.8289L15.7731 12.755L16.8058 12.3322L17.9074 17.4765L16.4616 17.6879L15.36 15.5738L14.5338 18.8859H18.1828L21.9695 19.8725L23.4841 18.8859L26.0315 21.5638L27.1331 16.6309L28.9232 18.4631L30.0248 16.9128L31.8148 16.4195L34.4311 13.953L34.8442 12.755L36.9785 13.1074L37.8735 14.3054L36.29 17.6879L40.2143 15.6443V14.6577L41.729 14.3054L43.3814 15.9966L45.0337 13.953V12.5436L47.7188 10.6409L48.8204 9.02013H50.5416L53.571 2.74832L56.1872 0L57.1511 1.55034L55.6364 3.52349L56.1872 4.79195L57.633 5.07383L58.8035 10.2886V14.6577L60.8689 17.547L61.9016 21.5638L58.3215 19.2383L56.738 12.5436L55.7741 12.755L55.6364 17.2651L53.0202 21.5638L52.2628 28.1175L54.0529 28.5403L54.8102 27.6242L56.5315 29.5973L57.8396 35.5168L57.7019 39.3221H56.0495L55.4299 33.9664L54.2595 35.5872L51.7121 35.0235L49.6466 33.2617L47.3058 34.1074L47.4435 37.9128L45.5845 38.406L42.8306 40.5201L39.5259 40.0973L38.2177 39.3221L36.1523 39.6745L36.8408 40.5201L35.1884 41.5067L33.8803 40.8725L31.4017 42L27.6151 40.0973L26.1692 36.7148L24.93 36.8557L23.4841 35.6577L23.4153 34.7416L18.8024 34.2483L18.0451 36.7852L15.1535 35.4463L13.7076 32.9799H10.6095L10.2652 36.9262L8.47516 37.4899L7.58013 41.0839L6.89164 40.4497L4 32.9094L7.44243 31.2181L6.89164 27.906L6.34085 24.5235L7.85552 22.3389L7.37358 21L9.43904 18.745L10.2652 18.8859ZM56.0495 27.2013L59.2166 31.9933L60.2493 31.5705L58.9412 29.5973L56.0495 26.4966V27.2013ZM23.6907 17.4765V16.0671L26.1004 14.3054L28.1658 13.2483H25.7561L23.6218 14.5168L22.3137 15.7148V17.4765H23.6907Z" fill="white"/>
<path d="M76.4776 33.1157H80.2883V28.9304H82.3993C85.6001 28.9304 87.7454 27.0374 87.7454 24.0017C87.7454 21.0004 85.6549 19.0178 82.5364 19.0178H76.4776V33.1157ZM80.2883 25.9567V22.0742H81.6317C82.9682 22.0742 83.7701 22.7901 83.7701 24.0017C83.7701 25.2063 82.9682 25.9567 81.6317 25.9567H80.2883Z" fill="white"/>
<path d="M94.0441 33.3085C97.471 33.3085 99.4998 31.1057 99.4998 27.8566C99.4998 24.6074 97.471 22.4046 94.0441 22.4046C90.6172 22.4046 88.5884 24.6074 88.5884 27.8566C88.5884 31.1057 90.6172 33.3085 94.0441 33.3085ZM94.0715 30.4999C93.0571 30.4999 92.454 29.488 92.454 27.829C92.454 26.17 93.0571 25.1581 94.0715 25.1581C95.0311 25.1581 95.6342 26.17 95.6342 27.829C95.6342 29.488 95.0311 30.4999 94.0715 30.4999Z" fill="white"/>
<path d="M106.107 33.3085C109.225 33.3085 111.138 31.5118 111.179 28.7101H107.67C107.587 29.8184 106.991 30.4173 106.162 30.4173C105.168 30.4173 104.517 29.5637 104.517 27.829C104.517 26.0943 105.168 25.2407 106.162 25.2407C106.998 25.2407 107.567 25.8396 107.67 26.9479H111.179C111.158 24.1944 109.205 22.4046 106.107 22.4046C102.68 22.4046 100.651 24.6074 100.651 27.8566C100.651 31.1057 102.68 33.3085 106.107 33.3085Z" fill="white"/>
<path d="M117.812 33.3085C120.93 33.3085 122.842 31.5118 122.884 28.7101H119.374C119.292 29.8184 118.696 30.4173 117.867 30.4173C116.873 30.4173 116.222 29.5637 116.222 27.829C116.222 26.0943 116.873 25.2407 117.867 25.2407C118.703 25.2407 119.272 25.8396 119.374 26.9479H122.884C122.863 24.1944 120.91 22.4046 117.812 22.4046C114.385 22.4046 112.356 24.6074 112.356 27.8566C112.356 31.1057 114.385 33.3085 117.812 33.3085Z" fill="white"/>
<path d="M128.009 28.2696V22.5423H124.445V33.1157H128.009L130.942 27.3609V33.1157H134.506V22.5423H130.942L128.009 28.2696Z" fill="white"/>
<path d="M142.491 33.1157H146V22.5423H141.065C138.029 22.5423 136.11 24.0843 136.13 26.232C136.117 27.4367 136.836 28.4348 138.097 29.0268L136.021 33.1157H139.503L141.278 29.6188H142.491V33.1157ZM142.491 27.3334H141.147C140.14 27.3334 139.674 26.8378 139.694 26.3697C139.674 25.9291 140.113 25.3784 141.065 25.3784H142.491V27.3334Z" fill="white"/>
</g>
<defs>
<filter id="filter0_d_63326_65" x="0" y="0" width="150" height="50" filterUnits="userSpaceOnUse" color-interpolation-filters="sRGB">
<feFlood flood-opacity="0" result="BackgroundImageFix"/>
<feColorMatrix in="SourceAlpha" type="matrix" values="0 0 0 0 0 0 0 0 0 0 0 0 0 0 0 0 0 0 127 0" result="hardAlpha"/>
<feOffset dy="4"/>
<feGaussianBlur stdDeviation="2"/>
<feComposite in2="hardAlpha" operator="out"/>
<feColorMatrix type="matrix" values="0 0 0 0 0 0 0 0 0 0 0 0 0 0 0 0 0 0 0.25 0"/>
<feBlend mode="normal" in2="BackgroundImageFix" result="effect1_dropShadow_63326_65"/>
<feBlend mode="normal" in="SourceGraphic" in2="effect1_dropShadow_63326_65" result="shape"/>
</filter>
</defs>
</svg>
